<?xml version="1.0" encoding="UTF-8"?>
<svg id="_Слой_2" data-name="Слой_2" xmlns="http://www.w3.org/2000/svg" viewBox="0 0 45.6 26.69">
  <defs>
    <style>
      .cls-1 {
        fill: #ff142f;
      }

      .cls-2 {
        fill: #f4f4f4;
      }
    </style>
  </defs>
  <g id="_Слой_1-2" data-name="Слой_1">
    <g>
      <g>
        <g>
          <path class="cls-2" d="M1.5,14v-7H0v-3h3.07v2h.7c.26-.72.67-1.26,1.25-1.61.58-.35,1.22-.52,1.93-.52h.85v2.67h-.98c-.82,0-1.41.23-1.77.68-.36.46-.54,1.05-.54,1.78v5H1.5Z"/>
          <path class="cls-2" d="M20.58,14V0h3.07v14h-3.07Z"/>
          <path class="cls-2" d="M30.57,14c-1.1,0-2.06-.21-2.87-.64-.81-.43-1.44-1.03-1.88-1.82s-.66-1.71-.66-2.77.21-1.99.64-2.76,1.04-1.37,1.83-1.78c.79-.42,1.73-.62,2.81-.62s1.98.2,2.75.61c.77.41,1.35.99,1.76,1.74.41.76.61,1.66.61,2.72v.98h-7.45c.12.64.39,1.13.8,1.46.41.33.96.49,1.63.49.54,0,.97-.09,1.27-.26.31-.17.52-.45.66-.82h3.07c-.21,1.09-.76,1.94-1.63,2.56-.88.62-1.99.93-3.35.93ZM28.17,7.65h4.47c-.1-.56-.33-.97-.69-1.24-.36-.27-.85-.41-1.48-.41s-1.11.14-1.5.42c-.39.28-.66.69-.8,1.23Z"/>
          <g>
            <path class="cls-2" d="M4.3,26.69L0,16.69h3.25l2.6,6.38h.07l2.53-6.38h3.18l-4.3,10h-3.03Z"/>
            <path class="cls-2" d="M22.77,26.69c-1.1,0-2.06-.21-2.87-.64-.81-.43-1.44-1.03-1.88-1.82s-.66-1.71-.66-2.77.21-1.99.64-2.76,1.04-1.37,1.83-1.78c.79-.42,1.73-.62,2.81-.62s1.98.2,2.75.61c.77.41,1.35.99,1.76,1.74.41.76.61,1.66.61,2.72v.98h-7.45c.12.64.39,1.13.8,1.46.41.33.96.49,1.63.49.54,0,.97-.09,1.27-.26.31-.17.52-.45.66-.82h3.07c-.21,1.09-.76,1.94-1.63,2.56-.88.62-1.99.93-3.35.93ZM20.37,20.34h4.47c-.1-.56-.33-.97-.69-1.24-.36-.27-.85-.41-1.48-.41s-1.11.14-1.5.42c-.39.28-.66.69-.8,1.23Z"/>
            <path class="cls-2" d="M31.47,26.69l-3.27-10h3.13l1.88,6.13h.08l2.2-6.13h2.83l2.18,6.13h.08l1.9-6.13h3.1l-3.25,10h-3.23l-2.18-5.87h-.07l-2.17,5.87h-3.23Z"/>
            <rect class="cls-2" x="12.78" y="16.61" width="3.07" height="10.07"/>
          </g>
        </g>
        <circle class="cls-2" cx="14.32" cy="8.8" r="5.2"/>
      </g>
      <path class="cls-1" d="M14.32,5.8v3h-3c0,1.66,1.34,3,3,3s3-1.34,3-3-1.34-3-3-3Z"/>
    </g>
  </g>
</svg>